<svg xmlns="http://www.w3.org/2000/svg" viewBox="0 0 512 512">
  <circle cx="256" cy="256" r="256" fill="#006c4c"/>
  <path d="M256 96c-88.4 0-160 71.6-160 160 0 88.4 71.6 160 160 160s160-71.6 160-160c0-88.4-71.6-160-160-160zm0 280c-66.3 0-120-53.7-120-120s53.7-120 120-120 120 53.7 120 120-53.7 120-120 120z" fill="#ffffff" opacity="0.2"/>
  <path d="M368 256c0-61.9-50.1-112-112-112s-112 50.1-112 112c0 61.9 50.1 112 112 112 25 0 48-8.3 66.4-22.4l-42.4-42.4c-6.7 4.3-14.7 6.8-23.2 6.8-24.3 0-44-19.7-44-44s19.7-44 44-44 44 19.7 44 44c0 8.5-2.5 16.5-6.8 23.2l42.4 42.4c14.1-18.4 22.4-41.4 22.4-66.4z" fill="#ffffff"/>
</svg>
